# xmcd CD database file
#
# Track frame offsets:
#	150
#	16450
#	29944
#	43093
#	56756
#	68532
#	81714
#	94425
#	106419
#	123446
#	138407
#	151709
#	164066
#
# Disc length: 2406 seconds
#
# Revision: 0
# Processed by: cddbd v1.5.2PL0 Copyright (c) Steve Scherf et al.
# Submitted via: ACXtractor (MTCDDB.DLL V2003.12.21)
#
DISCID=bd09640d
DTITLE=Norma O'Harra Murphy - Rodeo Queen
DYEAR=1982
DGENRE=Country
TTITLE0=Rodeo Queen
TTITLE1=All I Want To Be Is A Cowboy
TTITLE2=Rodeo Clown
TTITLE3=The Man with the Cane
TTITLE4=Sunset Lady
TTITLE5=The Waler
TTITLE6=The Squatters Daughter
TTITLE7=Truck Drivin' Man
TTITLE8=The Stallion
TTITLE9=Old Jack
TTITLE10=Boothill Rodeo
TTITLE11=High Flyin' Cowboy
TTITLE12=Murry River Sunshine
EXTD=ID3G:   2 YEAR: 1982
EXTT0=
EXTT1=
EXTT2=
EXTT3=
EXTT4=
EXTT5=
EXTT6=
EXTT7=
EXTT8=
EXTT9=
EXTT10=
EXTT11=
EXTT12=
PLAYORDER=
